<mxfile host="Electron" agent="Mozilla/5.0 (Windows NT 10.0; Win64; x64) AppleWebKit/537.36 (KHTML, like Gecko) draw.io/25.0.2 Chrome/128.0.6613.186 Electron/32.2.5 Safari/537.36" version="25.0.2">
  <diagram name="Página-1" id="qTdA-Vkch1A5TrW0gc-I">
    <mxGraphModel dx="1276" dy="614" grid="1" gridSize="10" guides="1" tooltips="1" connect="1" arrows="1" fold="1" page="1" pageScale="1" pageWidth="827" pageHeight="1169" math="0" shadow="0">
      <root>
        <mxCell id="0" />
        <mxCell id="1" parent="0" />
        <mxCell id="yJlPBFwwSx-vVAK7aMHo-2" style="edgeStyle=orthogonalEdgeStyle;rounded=0;orthogonalLoop=1;jettySize=auto;html=1;entryX=0.508;entryY=0.177;entryDx=0;entryDy=0;entryPerimeter=0;" edge="1" parent="1" source="yJlPBFwwSx-vVAK7aMHo-1" target="yJlPBFwwSx-vVAK7aMHo-3">
          <mxGeometry relative="1" as="geometry">
            <mxPoint x="380" y="130" as="targetPoint" />
          </mxGeometry>
        </mxCell>
        <mxCell id="yJlPBFwwSx-vVAK7aMHo-1" value="Inicio" style="rounded=1;whiteSpace=wrap;html=1;" vertex="1" parent="1">
          <mxGeometry x="320" y="10" width="120" height="60" as="geometry" />
        </mxCell>
        <mxCell id="yJlPBFwwSx-vVAK7aMHo-6" value="" style="edgeStyle=orthogonalEdgeStyle;rounded=0;orthogonalLoop=1;jettySize=auto;html=1;" edge="1" parent="1" source="yJlPBFwwSx-vVAK7aMHo-3" target="yJlPBFwwSx-vVAK7aMHo-5">
          <mxGeometry relative="1" as="geometry" />
        </mxCell>
        <mxCell id="yJlPBFwwSx-vVAK7aMHo-3" value="num" style="html=1;strokeWidth=2;shape=manualInput;whiteSpace=wrap;rounded=1;size=26;arcSize=11;" vertex="1" parent="1">
          <mxGeometry x="330" y="90" width="100" height="60" as="geometry" />
        </mxCell>
        <mxCell id="yJlPBFwwSx-vVAK7aMHo-9" value="" style="edgeStyle=orthogonalEdgeStyle;rounded=0;orthogonalLoop=1;jettySize=auto;html=1;" edge="1" parent="1" source="yJlPBFwwSx-vVAK7aMHo-5" target="yJlPBFwwSx-vVAK7aMHo-8">
          <mxGeometry relative="1" as="geometry" />
        </mxCell>
        <mxCell id="yJlPBFwwSx-vVAK7aMHo-19" style="edgeStyle=orthogonalEdgeStyle;rounded=0;orthogonalLoop=1;jettySize=auto;html=1;entryX=0;entryY=0.5;entryDx=0;entryDy=0;" edge="1" parent="1" source="yJlPBFwwSx-vVAK7aMHo-5" target="yJlPBFwwSx-vVAK7aMHo-18">
          <mxGeometry relative="1" as="geometry" />
        </mxCell>
        <mxCell id="yJlPBFwwSx-vVAK7aMHo-5" value="num != 0" style="rhombus;whiteSpace=wrap;html=1;strokeWidth=2;rounded=1;arcSize=11;" vertex="1" parent="1">
          <mxGeometry x="340" y="180" width="80" height="80" as="geometry" />
        </mxCell>
        <mxCell id="yJlPBFwwSx-vVAK7aMHo-15" style="edgeStyle=orthogonalEdgeStyle;rounded=0;orthogonalLoop=1;jettySize=auto;html=1;" edge="1" parent="1" source="yJlPBFwwSx-vVAK7aMHo-8">
          <mxGeometry relative="1" as="geometry">
            <mxPoint x="350" y="320" as="targetPoint" />
            <Array as="points">
              <mxPoint x="240" y="320" />
            </Array>
          </mxGeometry>
        </mxCell>
        <mxCell id="yJlPBFwwSx-vVAK7aMHo-22" style="edgeStyle=orthogonalEdgeStyle;rounded=0;orthogonalLoop=1;jettySize=auto;html=1;entryX=0.447;entryY=0.01;entryDx=0;entryDy=0;entryPerimeter=0;" edge="1" parent="1" source="yJlPBFwwSx-vVAK7aMHo-8" target="yJlPBFwwSx-vVAK7aMHo-16">
          <mxGeometry relative="1" as="geometry">
            <mxPoint x="130" y="220" as="targetPoint" />
            <Array as="points">
              <mxPoint x="140" y="220" />
              <mxPoint x="140" y="221" />
              <mxPoint x="134" y="221" />
            </Array>
          </mxGeometry>
        </mxCell>
        <mxCell id="yJlPBFwwSx-vVAK7aMHo-8" value="&amp;nbsp;num &amp;gt; 0" style="rhombus;whiteSpace=wrap;html=1;strokeWidth=2;rounded=1;arcSize=11;" vertex="1" parent="1">
          <mxGeometry x="200" y="180" width="80" height="80" as="geometry" />
        </mxCell>
        <mxCell id="yJlPBFwwSx-vVAK7aMHo-26" style="edgeStyle=orthogonalEdgeStyle;rounded=0;orthogonalLoop=1;jettySize=auto;html=1;entryX=0;entryY=0.75;entryDx=0;entryDy=0;" edge="1" parent="1" source="yJlPBFwwSx-vVAK7aMHo-16" target="yJlPBFwwSx-vVAK7aMHo-24">
          <mxGeometry relative="1" as="geometry" />
        </mxCell>
        <mxCell id="yJlPBFwwSx-vVAK7aMHo-16" value="*Negativo*" style="shape=document;whiteSpace=wrap;html=1;boundedLbl=1;" vertex="1" parent="1">
          <mxGeometry x="80" y="263" width="120" height="80" as="geometry" />
        </mxCell>
        <mxCell id="yJlPBFwwSx-vVAK7aMHo-25" style="edgeStyle=orthogonalEdgeStyle;rounded=0;orthogonalLoop=1;jettySize=auto;html=1;entryX=1;entryY=0.75;entryDx=0;entryDy=0;" edge="1" parent="1" source="yJlPBFwwSx-vVAK7aMHo-17" target="yJlPBFwwSx-vVAK7aMHo-24">
          <mxGeometry relative="1" as="geometry" />
        </mxCell>
        <mxCell id="yJlPBFwwSx-vVAK7aMHo-17" value="*Positivo*" style="shape=document;whiteSpace=wrap;html=1;boundedLbl=1;" vertex="1" parent="1">
          <mxGeometry x="360" y="300" width="120" height="80" as="geometry" />
        </mxCell>
        <mxCell id="yJlPBFwwSx-vVAK7aMHo-18" value="* o número precisa ser diferente de 0, volte para o inicio*" style="shape=document;whiteSpace=wrap;html=1;boundedLbl=1;" vertex="1" parent="1">
          <mxGeometry x="460" y="180" width="120" height="80" as="geometry" />
        </mxCell>
        <mxCell id="yJlPBFwwSx-vVAK7aMHo-20" value="Sim" style="text;html=1;align=center;verticalAlign=middle;resizable=0;points=[];autosize=1;strokeColor=none;fillColor=none;" vertex="1" parent="1">
          <mxGeometry x="270" y="288" width="40" height="30" as="geometry" />
        </mxCell>
        <mxCell id="yJlPBFwwSx-vVAK7aMHo-23" value="Não" style="text;html=1;align=center;verticalAlign=middle;resizable=0;points=[];autosize=1;strokeColor=none;fillColor=none;" vertex="1" parent="1">
          <mxGeometry x="140" y="190" width="50" height="30" as="geometry" />
        </mxCell>
        <mxCell id="yJlPBFwwSx-vVAK7aMHo-24" value="Fim" style="rounded=1;whiteSpace=wrap;html=1;" vertex="1" parent="1">
          <mxGeometry x="190" y="350" width="120" height="60" as="geometry" />
        </mxCell>
      </root>
    </mxGraphModel>
  </diagram>
</mxfile>
